<?xml version="1.0" encoding="UTF-8"?>
<svg id="Layer_2" data-name="Layer 2" xmlns="http://www.w3.org/2000/svg" viewBox="0 0 625.46 172.21">
  <defs>
    <style>
      .cls-1 {
        fill: #fff;
        stroke-width: 6.5px;
      }

      .cls-1, .cls-2, .cls-3 {
        stroke: #222;
        stroke-miterlimit: 10;
      }

      .cls-2 {
        fill: #222;
      }

      .cls-2, .cls-3 {
        stroke-width: 10px;
      }

      .cls-3 {
        fill: #5aa6dc;
      }
    </style>
  </defs>
  <g id="Layer_1-2" data-name="Layer 1">
    <g>
      <path class="cls-3" d="M620.46,111.28c0,18.61-14.17,34.16-32.7,35.85-47.34,4.33-143.86,20.08-275.03,20.08s-227.69-15.75-275.03-20.08c-18.53-1.69-32.7-17.24-32.7-35.85V41C5,21.12,21.12,5,41,5H584.46c19.88,0,36,16.12,36,36V111.28Z"/>
      <g>
        <g>
          <g>
            <path class="cls-2" d="M47.83,91.16v-11.96h-6.31v-22.59h4.98c3.77,0,5.65-1.55,6.2-6.53l.77-5.87h25.14v12.4h13.95v22.59h-13.95v7.75c0,2.77,1.33,3.43,6.76,3.43,2.77,0,5.65-.22,6.31-.33v21.04c-1.88,.44-7.53,1.11-16.06,1.11-20.6,0-27.8-8.2-27.8-21.04Z"/>
            <path class="cls-2" d="M158.8,86.96h-33.45c.22,5.76,1,7.42,4.43,7.42,2.44,0,3.54-1.44,3.54-4.98h25.47c0,13.62-8.2,22.81-31.12,22.81-26.47,0-33.11-13.18-33.11-27.69,0-20.05,12.74-28.79,33.11-28.79s31.12,8.42,31.12,25.47v5.76Zm-25.47-11.52c0-2.77-1.11-4.32-3.54-4.32-2.88,0-3.88,1.33-4.32,6.75h7.86v-2.44Z"/>
            <path class="cls-2" d="M225.14,86.96h-33.45c.22,5.76,1,7.42,4.43,7.42,2.44,0,3.54-1.44,3.54-4.98h25.47c0,13.62-8.2,22.81-31.12,22.81-26.47,0-33.11-13.18-33.11-27.69,0-20.05,12.74-28.79,33.11-28.79s31.12,8.42,31.12,25.47v5.76Zm-25.47-11.52c0-2.77-1.11-4.32-3.54-4.32-2.88,0-3.88,1.33-4.32,6.75h7.86v-2.44Z"/>
            <path class="cls-2" d="M228.13,56.61h30.79l-.55,14.84h.22c2.21-7.86,7.31-15.73,19.27-15.73,14.07,0,18.72,8.42,18.72,21.37v34.22h-30.79v-25.69c0-2.66-.89-3.99-2.99-3.99-1.99,0-3.88,1.33-3.88,5.21v24.48h-30.79V56.61Z"/>
            <path class="cls-2" d="M308.43,133.03v-19.27c2.1,.22,5.21,.44,8.53,.44,3.66,0,4.87-.89,5.65-2.88h-6.2l-20.04-54.71h35.22l5.32,24.37h.33l4.54-24.37h27.69l-17.39,56.92c-5.09,16.61-12.96,21.49-28.68,21.49-5.54,0-11.85-1.11-14.95-1.99Z"/>
          </g>
          <g>
            <path class="cls-2" d="M367.45,80.42h23.42v22.59h-23.42v-22.59Z"/>
            <g>
              <path class="cls-2" d="M403.34,103.01h-6.31v-22.59h6.31v-3.65c0-14.4,10.41-21.04,27.8-21.04,7.2,0,13.29,1.22,15.95,2.21v18.94c-1.44-.33-4.65-.78-7.53-.78-3.65,0-5.43,1.11-5.43,3.21v1.11h13.84v22.59h-13.84v31.12h-30.79v-31.12Z"/>
              <path class="cls-2" d="M450.52,90.83V56.61h30.79v25.36c0,2.66,.78,4.32,2.88,4.32,2.66,0,3.99-1.99,3.99-6.53v-23.15h30.79v54.71h-30.79c.22-3.1,.55-9.3,.66-15.06h-.22c-2.1,8.53-7.75,15.95-19.05,15.95-13.18,0-19.05-7.86-19.05-21.37Z"/>
              <path class="cls-2" d="M522.95,56.61h30.79l-.55,14.84h.22c2.21-7.86,7.31-15.73,19.27-15.73,14.06,0,18.72,8.42,18.72,21.37v34.22h-30.79v-25.69c0-2.66-.89-3.99-2.99-3.99-1.99,0-3.88,1.33-3.88,5.21v24.48h-30.79V56.61Z"/>
            </g>
          </g>
        </g>
        <g>
          <g>
            <path class="cls-1" d="M40.81,84.15v-11.96h-6.31v-22.59h4.98c3.77,0,5.65-1.55,6.2-6.53l.77-5.87h25.14v12.4h13.95v22.59h-13.95v7.75c0,2.77,1.33,3.43,6.76,3.43,2.77,0,5.65-.22,6.31-.33v21.04c-1.88,.44-7.53,1.11-16.06,1.11-20.6,0-27.8-8.2-27.8-21.04Z"/>
            <path class="cls-1" d="M151.78,79.94h-33.45c.22,5.76,1,7.42,4.43,7.42,2.44,0,3.54-1.44,3.54-4.98h25.47c0,13.62-8.2,22.81-31.12,22.81-26.47,0-33.11-13.18-33.11-27.69,0-20.05,12.74-28.79,33.11-28.79s31.12,8.42,31.12,25.47v5.76Zm-25.47-11.52c0-2.77-1.11-4.32-3.54-4.32-2.88,0-3.88,1.33-4.32,6.75h7.86v-2.44Z"/>
            <path class="cls-1" d="M218.12,79.94h-33.45c.22,5.76,1,7.42,4.43,7.42,2.44,0,3.54-1.44,3.54-4.98h25.47c0,13.62-8.2,22.81-31.12,22.81-26.47,0-33.11-13.18-33.11-27.69,0-20.05,12.74-28.79,33.11-28.79s31.12,8.42,31.12,25.47v5.76Zm-25.47-11.52c0-2.77-1.11-4.32-3.54-4.32-2.88,0-3.88,1.33-4.32,6.75h7.86v-2.44Z"/>
            <path class="cls-1" d="M221.11,49.59h30.79l-.55,14.84h.22c2.21-7.86,7.31-15.73,19.27-15.73,14.07,0,18.72,8.42,18.72,21.37v34.22h-30.79v-25.69c0-2.66-.89-3.99-2.99-3.99-1.99,0-3.88,1.33-3.88,5.21v24.48h-30.79V49.59Z"/>
            <path class="cls-1" d="M301.41,126.01v-19.27c2.1,.22,5.21,.44,8.53,.44,3.66,0,4.87-.89,5.65-2.88h-6.2l-20.04-54.71h35.22l5.32,24.37h.33l4.54-24.37h27.69l-17.39,56.92c-5.09,16.61-12.96,21.49-28.68,21.49-5.54,0-11.85-1.11-14.95-1.99Z"/>
          </g>
          <g>
            <path class="cls-1" d="M360.43,73.4h23.42v22.59h-23.42v-22.59Z"/>
            <g>
              <path class="cls-1" d="M396.32,96h-6.31v-22.59h6.31v-3.65c0-14.4,10.41-21.04,27.8-21.04,7.2,0,13.29,1.22,15.95,2.21v18.94c-1.44-.33-4.65-.78-7.53-.78-3.65,0-5.43,1.11-5.43,3.21v1.11h13.84v22.59h-13.84v31.12h-30.79v-31.12Z"/>
              <path class="cls-1" d="M443.5,83.81V49.59h30.79v25.36c0,2.66,.78,4.32,2.88,4.32,2.66,0,3.99-1.99,3.99-6.53v-23.15h30.79v54.71h-30.79c.22-3.1,.55-9.3,.66-15.06h-.22c-2.1,8.53-7.75,15.95-19.05,15.95-13.18,0-19.05-7.86-19.05-21.37Z"/>
              <path class="cls-1" d="M515.93,49.59h30.79l-.55,14.84h.22c2.21-7.86,7.31-15.73,19.27-15.73,14.06,0,18.72,8.42,18.72,21.37v34.22h-30.79v-25.69c0-2.66-.89-3.99-2.99-3.99-1.99,0-3.88,1.33-3.88,5.21v24.48h-30.79V49.59Z"/>
            </g>
          </g>
        </g>
      </g>
    </g>
  </g>
</svg>