<?xml version="1.0" encoding="UTF-8"?>
<svg xmlns="http://www.w3.org/2000/svg" viewBox="0 0 401.79 212.47">
  <defs>
    <style>
      .cls-1, .cls-2, .cls-3 {
        stroke: #222;
        stroke-miterlimit: 10;
        stroke-width: 5px;
      }

      .cls-1, .cls-4 {
        fill: #222;
      }

      .cls-2 {
        fill: #5aa6dc;
      }

      .cls-3 {
        fill: #f9f7ec;
      }

      .cls-5 {
        isolation: isolate;
      }

      .cls-4 {
        mix-blend-mode: overlay;
        opacity: .5;
      }
    </style>
  </defs>
  <g class="cls-5">
    <g id="Layer_2" data-name="Layer 2">
      <g id="Layer_1-2" data-name="Layer 1">
        <g>
          <path class="cls-1" d="M48.97,12.26C25.29,12.26,7.86,34.34,13.25,57.4c20.42,87.44,98.87,152.57,192.53,152.57s172.11-65.13,192.53-152.57c5.38-23.06-12.05-45.13-35.72-45.13H48.97Z"/>
          <path class="cls-2" d="M39.2,2.5C15.53,2.5-1.9,24.58,3.48,47.63c20.42,87.44,98.87,152.57,192.53,152.57s172.11-65.13,192.53-152.57c5.38-23.06-12.05-45.13-35.72-45.13H39.2Z"/>
          <path id="Overlay" class="cls-4" d="M23.48,67.63c-5.38-23.05,12.05-45.13,35.72-45.13H372.82c4.97,0,9.66,.98,13.93,2.73-5.43-13.14-18.32-22.74-33.93-22.74H39.2C15.53,2.5-1.9,24.58,3.48,47.63c9.63,41.23,32.16,77.49,63.1,104.31-20.64-23.81-35.69-52.59-43.1-84.31Z"/>
          <g>
            <g>
              <path class="cls-1" d="M72.84,80.29v-10.13h-5.35v-19.13h4.22c3.19,0,4.78-1.31,5.25-5.53l.66-4.97h21.29v10.5h11.82v19.13h-11.82v6.57c0,2.34,1.13,2.91,5.72,2.91,2.34,0,4.78-.19,5.35-.28v17.82c-1.59,.38-6.38,.94-13.6,.94-17.44,0-23.54-6.94-23.54-17.82Z"/>
              <path class="cls-1" d="M166.81,76.72h-28.32c.19,4.88,.84,6.28,3.75,6.28,2.06,0,3-1.22,3-4.22h21.57c0,11.54-6.94,19.32-26.35,19.32-22.41,0-28.04-11.16-28.04-23.45,0-16.98,10.79-24.38,28.04-24.38s26.35,7.13,26.35,21.57v4.88Zm-21.57-9.75c0-2.34-.94-3.66-3-3.66-2.44,0-3.28,1.12-3.66,5.72h6.66v-2.06Z"/>
              <path class="cls-1" d="M222.99,76.72h-28.32c.19,4.88,.84,6.28,3.75,6.28,2.06,0,3-1.22,3-4.22h21.57c0,11.54-6.94,19.32-26.35,19.32-22.41,0-28.04-11.16-28.04-23.45,0-16.98,10.79-24.38,28.04-24.38s26.35,7.13,26.35,21.57v4.88Zm-21.57-9.75c0-2.34-.94-3.66-3-3.66-2.44,0-3.28,1.12-3.66,5.72h6.66v-2.06Z"/>
              <path class="cls-1" d="M225.53,51.03h26.07l-.47,12.57h.19c1.88-6.66,6.19-13.32,16.32-13.32,11.91,0,15.85,7.13,15.85,18.1v28.98h-26.07v-21.76c0-2.25-.75-3.38-2.53-3.38-1.69,0-3.28,1.13-3.28,4.41v20.73h-26.07V51.03Z"/>
              <path class="cls-1" d="M293.52,115.74v-16.32c1.78,.19,4.41,.38,7.22,.38,3.1,0,4.13-.75,4.78-2.44h-5.25l-16.97-46.33h29.82l4.5,20.63h.28l3.84-20.63h23.45l-14.72,48.21c-4.31,14.07-10.97,18.19-24.29,18.19-4.69,0-10.03-.94-12.66-1.69Z"/>
            </g>
            <g>
              <path class="cls-1" d="M94.23,120.55h21.29v20.54h-21.29v-20.54Z"/>
              <path class="cls-1" d="M124.24,140.68h-5.35v-19.13h5.35v-3.09c0-12.19,8.82-17.82,23.54-17.82,6.1,0,11.25,1.03,13.51,1.88v16.04c-1.22-.28-3.94-.66-6.38-.66-3.09,0-4.6,.94-4.6,2.72v.94h11.72v19.13h-11.72v27.2h-26.07v-27.2Z"/>
              <path class="cls-1" d="M164.19,130.36v-28.98h26.07v21.48c0,2.25,.66,3.66,2.44,3.66,2.25,0,3.38-1.69,3.38-5.53v-19.6h26.07v46.33h-26.07c.19-2.63,.47-7.88,.56-12.75h-.19c-1.78,7.22-6.56,13.5-16.13,13.5-11.16,0-16.13-6.66-16.13-18.1Z"/>
              <path class="cls-1" d="M225.53,101.38h26.07l-.47,12.57h.19c1.88-6.66,6.19-13.32,16.32-13.32,11.91,0,15.85,7.13,15.85,18.1v28.98h-26.07v-21.76c0-2.25-.75-3.38-2.53-3.38-1.69,0-3.28,1.13-3.28,4.41v20.73h-26.07v-46.33Z"/>
            </g>
          </g>
          <g>
            <g>
              <path class="cls-3" d="M67.51,74.95v-10.13h-5.35v-19.13h4.22c3.19,0,4.78-1.31,5.25-5.53l.66-4.97h21.29v10.5h11.82v19.13h-11.82v6.57c0,2.34,1.13,2.91,5.72,2.91,2.34,0,4.78-.19,5.35-.28v17.82c-1.59,.38-6.38,.94-13.6,.94-17.44,0-23.54-6.94-23.54-17.82Z"/>
              <path class="cls-3" d="M161.48,71.39h-28.32c.19,4.88,.84,6.28,3.75,6.28,2.06,0,3-1.22,3-4.22h21.57c0,11.54-6.94,19.32-26.35,19.32-22.41,0-28.04-11.16-28.04-23.45,0-16.98,10.79-24.38,28.04-24.38s26.35,7.13,26.35,21.57v4.88Zm-21.57-9.75c0-2.34-.94-3.66-3-3.66-2.44,0-3.28,1.12-3.66,5.72h6.66v-2.06Z"/>
              <path class="cls-3" d="M217.66,71.39h-28.32c.19,4.88,.84,6.28,3.75,6.28,2.06,0,3-1.22,3-4.22h21.57c0,11.54-6.94,19.32-26.35,19.32-22.41,0-28.04-11.16-28.04-23.45,0-16.98,10.79-24.38,28.04-24.38s26.35,7.13,26.35,21.57v4.88Zm-21.57-9.75c0-2.34-.94-3.66-3-3.66-2.44,0-3.28,1.12-3.66,5.72h6.66v-2.06Z"/>
              <path class="cls-3" d="M220.19,45.69h26.07l-.47,12.57h.19c1.88-6.66,6.19-13.32,16.32-13.32,11.91,0,15.85,7.13,15.85,18.1v28.98h-26.07v-21.76c0-2.25-.75-3.38-2.53-3.38-1.69,0-3.28,1.13-3.28,4.41v20.73h-26.07V45.69Z"/>
              <path class="cls-3" d="M288.19,110.4v-16.32c1.78,.19,4.41,.38,7.22,.38,3.1,0,4.13-.75,4.78-2.44h-5.25l-16.97-46.33h29.82l4.5,20.63h.28l3.84-20.63h23.45l-14.72,48.21c-4.31,14.07-10.97,18.19-24.29,18.19-4.69,0-10.03-.94-12.66-1.69Z"/>
            </g>
            <g>
              <path class="cls-3" d="M88.89,115.22h21.29v20.54h-21.29v-20.54Z"/>
              <path class="cls-3" d="M118.9,135.34h-5.35v-19.13h5.35v-3.09c0-12.19,8.82-17.82,23.54-17.82,6.1,0,11.25,1.03,13.51,1.88v16.04c-1.22-.28-3.94-.66-6.38-.66-3.09,0-4.6,.94-4.6,2.72v.94h11.72v19.13h-11.72v27.2h-26.07v-27.2Z"/>
              <path class="cls-3" d="M158.86,125.03v-28.98h26.07v21.48c0,2.25,.66,3.66,2.44,3.66,2.25,0,3.38-1.69,3.38-5.53v-19.6h26.07v46.33h-26.07c.19-2.63,.47-7.88,.56-12.75h-.19c-1.78,7.22-6.56,13.5-16.13,13.5-11.16,0-16.13-6.66-16.13-18.1Z"/>
              <path class="cls-3" d="M220.19,96.05h26.07l-.47,12.57h.19c1.88-6.66,6.19-13.32,16.32-13.32,11.91,0,15.85,7.13,15.85,18.1v28.98h-26.07v-21.76c0-2.25-.75-3.38-2.53-3.38-1.69,0-3.28,1.13-3.28,4.41v20.73h-26.07v-46.33Z"/>
            </g>
          </g>
        </g>
      </g>
    </g>
  </g>
</svg>