<?xml version="1.0" encoding="UTF-8"?>
<svg id="Layer_2" data-name="Layer 2" xmlns="http://www.w3.org/2000/svg" viewBox="0 0 97.46 97.46">
  <defs>
    <style>
      .cls-1 {
        fill: #ffdd67;
      }

      .cls-2 {
        fill: #fff;
      }

      .cls-3 {
        fill: #ff717f;
      }

      .cls-4 {
        fill: #664e27;
      }

      .cls-5 {
        fill: #e2596c;
      }

      .cls-6 {
        fill: #222;
      }
    </style>
  </defs>
  <g id="Layer_1-2" data-name="Layer 1">
    <g id="smiley">
      <g>
        <circle class="cls-6" cx="48.73" cy="48.73" r="48.73" transform="translate(-18.34 64.57) rotate(-58.28)"/>
        <circle class="cls-1" cx="48.73" cy="48.73" r="44.41" transform="translate(-18.34 64.57) rotate(-58.28)"/>
        <circle class="cls-2" cx="32.82" cy="37.77" r="14.8"/>
        <path class="cls-4" d="M32.82,31.11c3.68,0,6.66,2.98,6.66,6.66s-2.98,6.66-6.66,6.66-6.66-2.98-6.66-6.66,2.98-6.66,6.66-6.66Z"/>
        <path class="cls-4" d="M76.82,44.49c-2.76-6.05-6.91-9.08-11.07-9.08s-8.31,3.03-11.07,9.08c-.27,.61,1.15,1.71,1.86,1.11,2.68-2.25,5.87-3.15,9.21-3.15s6.53,.9,9.21,3.15c.71,.6,2.13-.5,1.86-1.11Z"/>
        <path class="cls-4" d="M72.24,57.61H25.23c-1.09,0-1.67,.75-1.67,1.48,0,10.76,8.82,22.2,25.17,22.2s25.17-11.44,25.17-22.2c0-.73-.58-1.48-1.67-1.48Z"/>
        <path class="cls-3" d="M62.32,66.5h-27.17c-1.05,0-1.22,.47-1.22,1.26v5.91c0,12.96,6.63,19.47,14.8,19.47,8.17,0,14.8-6.51,14.8-19.47v-5.91c0-.79-.17-1.26-1.22-1.26Z"/>
        <polygon class="cls-5" points="50.95 66.5 48.74 86.91 46.51 66.5 50.95 66.5"/>
      </g>
    </g>
  </g>
</svg>