<svg xmlns="http://www.w3.org/2000/svg" width="661" height="567.811" viewBox="0 0 661 567.811">
  <g id="BG" transform="translate(25 24.924)" fill="#fffbf4">
    <path d="M 298.76513671875 540.386474609375 C 264.9128112792969 540.386474609375 228.6108856201172 539.0122680664062 190.8677215576172 536.3021850585938 C 160.6802215576172 534.1346435546875 129.5070495605469 531.1123046875 98.21396636962891 527.3192749023438 C 47.08860397338867 521.122314453125 12.20097923278809 514.843505859375 9.140669822692871 514.2863159179688 C 7.144370555877686 514.252197265625 5.210184097290039 513.7877807617188 3.387552738189697 512.9046020507812 C 1.584136128425598 512.0307006835938 -0.02928051725029945 510.786865234375 -1.407863855361938 509.20751953125 C -4.146598339080811 506.0699157714844 -5.671292304992676 501.9333190917969 -5.711381435394287 497.5417785644531 C -6.054038524627686 495.0503234863281 -10.10093688964844 465.3122253417969 -14.0954475402832 422.2767028808594 C -16.53503036499023 395.9927978515625 -18.47894668579102 369.9579467773438 -19.87311363220215 344.8953552246094 C -21.61619758605957 313.5593566894531 -22.50003051757812 283.6617736816406 -22.50003051757812 256.032958984375 C -22.50003051757812 228.4043731689453 -21.61619758605957 198.4521179199219 -19.87311363220215 167.0082855224609 C -18.47894668579102 141.8595275878906 -16.53511428833008 115.7044525146484 -14.09553050994873 89.26961517333984 C -10.09991264343262 45.97356796264648 -6.051874160766602 15.98022365570068 -5.711398601531982 13.48424530029297 C -5.671671867370605 9.092103004455566 -4.146937370300293 4.954528331756592 -1.407863855361938 1.816534519195557 C -0.02928051725029945 0.2372011691331863 1.584136128425598 -1.006632208824158 3.387552738189697 -1.88054883480072 C 5.229036331176758 -2.772824764251709 7.184726715087891 -3.237679719924927 9.202963829040527 -3.263186693191528 C 11.86141395568848 -3.619112253189087 46.85168075561523 -8.256728172302246 98.29322052001953 -12.83429908752441 C 129.5757141113281 -15.61804866790771 160.7382965087891 -17.83613204956055 190.9152221679688 -19.42688179016113 C 228.6426391601562 -21.4156322479248 264.9285583496094 -22.42404937744141 298.76513671875 -22.42404937744141 C 332.6001281738281 -22.42404937744141 369.61181640625 -21.41571617126465 408.7721252441406 -19.42713165283203 C 440.0938720703125 -17.83654975891113 472.8537292480469 -15.61879920959473 506.1417236328125 -12.83546543121338 C 561.0714111328125 -8.242581367492676 599.4750366210938 -3.589979887008667 602.1480712890625 -3.263367891311646 C 604.1716918945312 -3.240010261535645 606.1325073242188 -2.775066375732422 607.9786376953125 -1.88054883480072 C 609.7821655273438 -1.006632208824158 611.3955688476562 0.2372011691331863 612.7741088867188 1.816534519195557 C 615.5188598632812 4.960933208465576 617.0442504882812 9.108517646789551 617.0780029296875 13.51066398620605 C 617.366943359375 16.00324249267578 621.349365234375 50.63759613037109 625.2809448242188 98.68578338623047 C 627.6666259765625 127.8416976928711 629.5675659179688 156.1636962890625 630.930908203125 182.8652038574219 C 632.6356201171875 216.2526245117188 633.5 247.1885375976562 633.5 274.8135375976562 C 633.5 302.4442749023438 632.6353149414062 331.356689453125 630.9298706054688 360.7474365234375 C 629.5657958984375 384.2572937011719 627.6636962890625 408.1251220703125 625.2765502929688 431.6879577636719 C 621.3968505859375 469.9821472167969 617.465087890625 495.1257019042969 617.0774536132812 497.56884765625 C 617.0314331054688 501.9503784179688 615.5073852539062 506.0763244628906 612.7741088867188 509.20751953125 C 611.3955688476562 510.786865234375 609.7821655273438 512.0307006835938 607.9786376953125 512.9046020507812 C 606.1497802734375 513.790771484375 604.2083740234375 514.25537109375 602.204833984375 514.2866821289062 C 599.1264038085938 514.79833984375 560.8369750976562 521.1004028320312 506.21630859375 527.3213500976562 C 472.9187927246094 531.1137084960938 440.1492309570312 534.1354370117188 408.81787109375 536.3026733398438 C 369.6424560546875 539.012451171875 332.6153869628906 540.386474609375 298.76513671875 540.386474609375 Z" stroke="none"/>
    <path d="M 298.76513671875 -19.924072265625 C 150.6129760742188 -19.924072265625 9.3785400390625 -0.764404296875 9.3785400390625 -0.764404296875 C 2.42486572265625 -0.764404296875 -3.21221923828125 5.69378662109375 -3.21221923828125 13.66018676757812 C -3.21221923828125 13.66018676757812 -20.00006103515625 135.1071166992188 -20.00006103515625 256.032958984375 C -20.00006103515625 376.9588623046875 -3.21221923828125 497.3638610839844 -3.21221923828125 497.3638610839844 C -3.21221923828125 505.3302917480469 2.42486572265625 511.7883605957031 9.3785400390625 511.7883605957031 C 9.3785400390625 511.7883605957031 150.6129760742188 537.886474609375 298.76513671875 537.886474609375 C 446.9173889160156 537.886474609375 601.987548828125 511.7883605957031 601.987548828125 511.7883605957031 C 608.9412841796875 511.7883605957031 614.5785522460938 505.3302917480469 614.5785522460938 497.3638610839844 C 614.5785522460938 497.3638610839844 631 395.7394409179688 631 274.8135375976562 C 631 153.8876037597656 614.5785522460938 13.66018676757812 614.5785522460938 13.66018676757812 C 614.5785522460938 5.69378662109375 608.9412841796875 -0.764404296875 601.987548828125 -0.764404296875 C 601.987548828125 -0.764404296875 446.9173889160156 -19.924072265625 298.76513671875 -19.924072265625 M 298.76513671875 -24.924072265625 C 332.6422119140625 -24.924072265625 369.696533203125 -23.91461181640625 408.8989868164062 -21.92388916015625 C 440.2477416992188 -20.33197021484375 473.0349731445312 -18.11236572265625 506.3500366210938 -15.3267822265625 C 560.5478515625 -10.795166015625 598.6851196289062 -6.20361328125 602.3192749023438 -5.76104736328125 C 604.6629028320312 -5.71380615234375 606.9319458007812 -5.16583251953125 609.0687866210938 -4.13037109375 C 611.1763916015625 -3.109130859375 613.0567016601562 -1.66143798828125 614.6575317382812 0.17254638671875 C 617.7666015625 3.73431396484375 619.5071411132812 8.403961181640625 619.576416015625 13.35238647460938 C 619.9685668945312 16.74664306640625 623.89599609375 51.10470581054688 627.7726440429688 98.48187255859375 C 630.160400390625 127.6631164550781 632.06298828125 156.0108642578125 633.4276123046875 182.7377014160156 C 635.1344604492188 216.1674499511719 636 247.1462097167969 636 274.8135375976562 C 636 302.4923706054688 635.1339111328125 331.4534301757812 633.4257202148438 360.8922729492188 C 632.0595703125 384.4378051757812 630.154541015625 408.3416137695312 627.7637939453125 431.9398803710938 C 623.9583740234375 469.501220703125 620.09912109375 494.4568786621094 619.5745239257812 497.7837829589844 C 619.4805908203125 502.6903686523438 617.7429809570312 507.3168640136719 614.6575317382812 510.8515319824219 C 613.0567016601562 512.6854248046875 611.1763916015625 514.1331176757812 609.0687866210938 515.1543579101562 C 606.968017578125 516.17236328125 604.7392578125 516.7191772460938 602.4376220703125 516.7822265625 C 598.2630615234375 517.473388671875 560.27880859375 523.68017578125 506.4992065429688 529.8052978515625 C 473.1651306152344 533.601806640625 440.3583984375 536.626953125 408.9903869628906 538.7966918945312 C 369.7578125 541.5104370117188 332.6726379394531 542.886474609375 298.76513671875 542.886474609375 C 264.8533020019531 542.886474609375 228.4911499023438 541.5101318359375 190.688720703125 538.7957763671875 C 160.4606323242188 536.6253051757812 129.2464599609375 533.5990600585938 97.91314697265625 529.8011474609375 C 47.6494140625 523.7085571289062 13.0355224609375 517.5328369140625 8.8863525390625 516.781005859375 C 6.59954833984375 516.7125854492188 4.385498046875 516.1661987304688 2.29730224609375 515.1543579101562 C 0.1898193359375 514.1331176757812 -1.6905517578125 512.6854248046875 -3.291259765625 510.8515319824219 C -6.3883056640625 507.303466796875 -8.1273193359375 502.655517578125 -8.20916748046875 497.7283630371094 C -8.6744384765625 494.3310241699219 -12.65606689453125 464.8345031738281 -16.584716796875 422.5076904296875 C -19.0272216796875 396.1932983398438 -20.973388671875 370.12744140625 -22.36920166015625 345.0341796875 C -24.1148681640625 313.6522216796875 -25.00006103515625 283.7078857421875 -25.00006103515625 256.032958984375 C -25.00006103515625 228.3583679199219 -24.11492919921875 198.359619140625 -22.3692626953125 166.869873046875 C -20.97344970703125 141.6907958984375 -19.02734375 115.5050354003906 -16.5849609375 89.03985595703125 C -12.6544189453125 46.44940185546875 -8.67095947265625 16.69912719726562 -8.209228515625 13.29864501953125 C -8.12799072265625 8.370452880859375 -6.38885498046875 3.72125244140625 -3.291259765625 0.17254638671875 C -1.6905517578125 -1.661376953125 0.189697265625 -3.109130859375 2.29730224609375 -4.13037109375 C 4.42462158203125 -5.1612548828125 6.68280029296875 -5.70892333984375 9.01531982421875 -5.7603759765625 C 12.6279296875 -6.24212646484375 47.379150390625 -10.8135986328125 98.0716552734375 -15.32452392578125 C 129.3839721679688 -18.11090087890625 160.5768127441406 -20.3310546875 190.7835388183594 -21.92340087890625 C 228.5546264648438 -23.91448974609375 264.8848876953125 -24.924072265625 298.76513671875 -24.924072265625 Z" stroke="none" fill="#222"/>
  </g>
</svg>
