<svg xmlns="http://www.w3.org/2000/svg" viewBox="0 0 400 100" width="1em" height="1em" fill="#222">
  <path d="M0,77.03V22.97c0-1.79,1.46-3.23,3.23-3.23H36.48V3.24c0-2.73,3.18-4.22,5.28-2.5l57.05,46.77c1.58,1.29,1.58,3.71,0,5l-57.05,46.75c-2.11,1.74-5.28,.24-5.28-2.5v-16.49H3.23c-1.78,0-3.23-1.44-3.23-3.23Z"/>
  <path d="M100,77.03V22.97c0-1.79,1.46-3.23,3.23-3.23h33.25V3.24c0-2.73,3.18-4.22,5.28-2.5l57.05,46.77c1.58,1.29,1.58,3.71,0,5l-57.05,46.75c-2.11,1.74-5.28,.24-5.28-2.5v-16.49h-33.25c-1.78,0-3.23-1.44-3.23-3.23Z"/>
  <path d="M200,77.03V22.97c0-1.79,1.46-3.23,3.23-3.23h33.25V3.24c0-2.73,3.18-4.22,5.28-2.5l57.05,46.77c1.58,1.29,1.58,3.71,0,5l-57.05,46.75c-2.11,1.74-5.28,.24-5.28-2.5v-16.49h-33.25c-1.78,0-3.23-1.44-3.23-3.23Z"/>
  <path d="M300,77.03V22.97c0-1.79,1.46-3.23,3.23-3.23h33.25V3.24c0-2.73,3.18-4.22,5.28-2.5l57.05,46.77c1.58,1.29,1.58,3.71,0,5l-57.05,46.75c-2.11,1.74-5.28,.24-5.28-2.5v-16.49h-33.25c-1.78,0-3.23-1.44-3.23-3.23Z"/>
</svg>