<svg xmlns="http://www.w3.org/2000/svg" width="184.651" height="184.651" viewBox="0 0 184.651 184.651">
  <g id="_4-point-star" data-name="4-point-star" transform="translate(0 0)">
    <g id="Ellipse_2" data-name="Ellipse 2" transform="translate(0 0)" fill="#5aa6dc" stroke="#222" stroke-width="var(--border-width, 2.5%)">
      <ellipse cx="92.326" cy="92.326" rx="92.326" ry="92.326" stroke="none"/>
      <ellipse cx="92.326" cy="92.326" rx="89.826" ry="89.826" fill="none"/>
    </g>
    <g id="Path_25" data-name="Path 25" transform="translate(50 50)" fill="#fffbf4">
      <path d="M 42.34311294555664 90.76799774169922 L 40.06417846679688 85.71466064453125 L 27.29245185852051 57.39443969726562 L -1.027755260467529 44.62271499633789 L -6.081088542938232 42.34378051757812 L -1.027781963348389 40.06478118896484 L 27.29244422912598 27.29257011413574 L 40.06417846679688 -1.027657985687256 L 42.34311294555664 -6.080991268157959 L 44.62211227416992 -1.027684569358826 L 57.39433288574219 27.29256057739258 L 85.71456146240234 40.06478118896484 L 90.76786041259766 42.34378051757812 L 85.71453857421875 44.62271499633789 L 57.39432525634766 57.39445114135742 L 44.62211227416992 85.71469116210938 L 42.34311294555664 90.76799774169922 Z" stroke="none"/>
      <path d="M 42.34316253662109 9.918212890625e-05 L 29.18252944946289 29.18264007568359 L -7.62939453125e-06 42.34375 L 29.18252944946289 55.50436401367188 L 42.34316253662109 84.68690490722656 L 55.50425338745117 55.50436401367188 L 84.68677520751953 42.34375 L 55.50425338745117 29.18264007568359 L 42.34316253662109 9.918212890625e-05 M 42.34308242797852 -12.16207885742188 L 59.28440093994141 25.40249633789062 L 96.84894561767578 42.34384155273438 L 59.28437805175781 59.2845458984375 L 42.34308242797852 96.84909057617188 L 25.40236282348633 59.28453063964844 L -12.16219329833984 42.34384155273438 L 25.40234756469727 25.40251541137695 L 42.34308242797852 -12.16207885742188 Z" stroke="none" fill="#222"/>
    </g>
  </g>
</svg>
