<svg xmlns="http://www.w3.org/2000/svg" width="205.246" height="196.615" viewBox="0 0 205.246 196.615">
  <path id="_5-point-star" data-name="5-point-star" d="M111.54,7.823l17.942,44.748a12.46,12.46,0,0,0,10.727,7.794l48.1,3.236a12.459,12.459,0,0,1,7.146,22l-37.014,30.891a12.456,12.456,0,0,0-4.1,12.611l11.787,46.748a12.458,12.458,0,0,1-18.711,13.594l-40.817-25.655a12.457,12.457,0,0,0-13.26,0L52.53,189.44a12.459,12.459,0,0,1-18.712-13.594L45.606,129.1a12.459,12.459,0,0,0-4.1-12.611L4.5,85.6a12.458,12.458,0,0,1,7.146-22l48.1-3.236a12.46,12.46,0,0,0,10.728-7.794L88.413,7.823a12.459,12.459,0,0,1,23.127,0" transform="translate(2.646 2.499)" fill="#f9dc57" stroke="#222" stroke-width="var(--border-width, 2.5%)"/>
</svg>
