<svg xmlns="http://www.w3.org/2000/svg" width="180.168" height="203.381" viewBox="0 0 180.168 203.381">
  <path id="_6-point-star" data-name="6-point-star" d="M97.431,6.848,111.8,43.43a10.8,10.8,0,0,0,11.655,6.728l38.867-5.842a10.8,10.8,0,0,1,10.05,17.406L147.883,92.461a10.8,10.8,0,0,0,0,13.457l24.493,30.739a10.8,10.8,0,0,1-10.05,17.406l-38.867-5.842a10.8,10.8,0,0,0-11.655,6.728l-14.373,36.58a10.8,10.8,0,0,1-20.1,0l-14.373-36.58A10.8,10.8,0,0,0,51.3,148.223l-38.867,5.842a10.8,10.8,0,0,1-10.05-17.406L26.88,105.919a10.8,10.8,0,0,0,0-13.457L2.386,61.723a10.8,10.8,0,0,1,10.05-17.406L51.3,50.158A10.8,10.8,0,0,0,62.958,43.43L77.331,6.848a10.8,10.8,0,0,1,20.1,0" transform="translate(2.703 2.5)" fill="#ff6392" stroke="#222" stroke-width="var(--border-width, 2.5%)"/>
</svg>
