<svg xmlns="http://www.w3.org/2000/svg" width="221.327" height="221.327" viewBox="0 0 221.327 221.327">
  <g id="cry" transform="translate(22.401 22.467)">
    <path id="Face" d="M107.664,0A107.664,107.664,0,1,1,0,107.664,107.663,107.663,0,0,1,107.664,0" transform="translate(-19.401 -19.467)" fill="#ffdd67" stroke="#222" stroke-width="var(--border-width, 2.5%)"/>
    <path id="Path_6" data-name="Path 6" d="M205.028,214.9c-1.457-1.866-4.044-1.543-6.862-1.543H84.876c-2.817,0-5.4-.323-6.862,1.543-14.032,17.894,2.476,70.211,63.507,70.211s77.539-52.318,63.507-70.211" transform="translate(-53.259 -117.959)" fill="#664e27"/>
    <path id="Path_7" data-name="Path 7" d="M188.172,264.932c-2.074-.05-5.276,1.891-4.106,7.023.585,2.595,4.271,5.735,4.271,9.919,0,8.509-13.555,8.509-13.555,0,0-4.184,3.678-7.324,4.27-9.919,1.17-5.132-2.028-7.073-4.109-7.023-5.638.147-14.889,6.23-14.889,16.526,0,11.567,9.632,20.944,21.5,20.944s21.5-9.377,21.5-20.944c0-10.293-9.248-16.379-14.883-16.526" transform="translate(-93.295 -141.781)" fill="#4c3526"/>
    <path id="Path_8" data-name="Path 8" d="M148.58,319.311a73.046,73.046,0,0,0,55.361,0,67.212,67.212,0,0,0-55.361,0" transform="translate(-87.998 -164.134)" fill="#ff717f"/>
    <path id="Path_9" data-name="Path 9" d="M202.883,226.667H95.553c-7.368,0-7.368,14.355-.19,14.355h107.71c7.178,0,7.178-14.355-.19-14.355" transform="translate(-60.954 -124.115)" fill="#fff"/>
    <path id="Tear" d="M335.2,214.444c26.223,27.558-9.406,65.014-35.637,37.456-19.15-20.137-20.018-58.5-20.018-58.5s36.513.922,55.655,21.044" transform="translate(-148.463 -108.757)" fill="#5aa6dc" stroke="#222" stroke-width="var(--border-width, 2.5%)"/>
    <path id="Tear-2" data-name="Tear" d="M44.817,251.9C18.6,279.459-17.043,242,9.187,214.444,28.337,194.318,64.842,193.4,64.842,193.4s-.876,38.375-20.025,58.5" transform="translate(-19.402 -108.757)" fill="#5aa6dc" stroke="#222" stroke-width="var(--border-width, 2.5%)"/>
    <path id="Path_12" data-name="Path 12" d="M130.844,154.189c-6.671-18.342-16.724-27.523-26.776-27.523s-20.1,9.18-26.772,27.523c-.661,1.848,2.778,5.179,4.5,3.366a30.774,30.774,0,0,1,44.547,0c1.716,1.812,5.161-1.518,4.5-3.366" transform="translate(-55.049 -77.947)" fill="#664e27"/>
    <path id="Path_13" data-name="Path 13" d="M276.641,154.189c-6.675-18.342-16.727-27.523-26.776-27.523s-20.1,9.18-26.776,27.523c-.661,1.848,2.782,5.179,4.5,3.366a30.779,30.779,0,0,1,44.551,0c1.716,1.812,5.157-1.518,4.5-3.366" transform="translate(-122.359 -77.947)" fill="#664e27"/>
  </g>
</svg>
