<svg xmlns="http://www.w3.org/2000/svg" width="217.859" height="217.859" viewBox="0 0 217.859 217.859">
  <g id="tonge" transform="translate(-1294 -699)">
    <path id="Path_127" data-name="Path 127" d="M108.93,0A108.93,108.93,0,1,1,0,108.93,108.93,108.93,0,0,1,108.93,0" transform="translate(1294 699)" fill="#222"/>
    <path id="Path_128" data-name="Path 128" d="M112.628,10A102.628,102.628,0,1,1,10,112.628,102.628,102.628,0,0,1,112.628,10" transform="translate(1290.302 695.302)" fill="#ffdd67"/>
    <path id="Path_129" data-name="Path 129" d="M107.85,86.2A33.089,33.089,0,1,1,74.761,53.116,33.092,33.092,0,0,1,107.85,86.2" transform="translate(1292.598 697.213)" fill="#fff"/>
    <path id="Path_130" data-name="Path 130" d="M75.395,71.948A14.89,14.89,0,1,1,60.5,86.838a14.889,14.889,0,0,1,14.89-14.89" transform="translate(1291.965 696.58)" fill="#664e27"/>
    <path id="Path_131" data-name="Path 131" d="M175.974,102.2c-6.168-13.527-15.453-20.294-24.741-20.294s-18.573,6.766-24.741,20.294c-.611,1.364,2.568,3.818,4.156,2.482,5.982-5.03,13.122-7.035,20.585-7.035s14.6,2.005,20.584,7.035c1.586,1.336,4.765-1.118,4.157-2.482" transform="translate(1289.748 696.245)" fill="#664e27"/>
    <path id="Path_132" data-name="Path 132" d="M163.3,133.265H58.237a3.428,3.428,0,0,0-3.722,3.309c0,24.059,19.721,49.632,56.254,49.632s56.254-25.574,56.254-49.632a3.429,3.429,0,0,0-3.722-3.309" transform="translate(1292.166 694.518)" fill="#664e27"/>
    <path id="Path_133" data-name="Path 133" d="M141.944,153.81H81.206c-2.342,0-2.719,1.048-2.719,2.809v13.219c0,28.979,14.82,43.518,33.088,43.531,18.268-.013,33.089-14.551,33.089-43.531V156.619c0-1.761-.378-2.809-2.72-2.809" transform="translate(1291.36 693.826)" fill="#ff717f"/>
    <path id="Path_134" data-name="Path 134" d="M117.511,153.81l-4.956,45.626-4.97-45.626Z" transform="translate(1290.381 693.827)" fill="#e2596c"/>
  </g>
</svg>
